<?xml version="1.0" standalone="no"?>
<!DOCTYPE svg PUBLIC "-//W3C//DTD SVG 20010904//EN"
 "http://www.w3.org/TR/2001/REC-SVG-20010904/DTD/svg10.dtd">
<svg version="1.0" xmlns="http://www.w3.org/2000/svg"
 width="2060.000000pt" height="1834.000000pt" viewBox="0 0 2060.000000 1834.000000"
 preserveAspectRatio="xMidYMid meet">

<g transform="translate(0.000000,1834.000000) scale(0.100000,-0.100000)"
fill="#000000" stroke="none">
<path d="M5385 18309 c-183 -12 -382 -36 -580 -69 -1772 -302 -3310 -1420
-4129 -3002 -532 -1027 -747 -2219 -620 -3448 262 -2550 1875 -5215 4724
-7806 1420 -1292 3117 -2537 5189 -3807 l246 -151 85 0 85 0 246 151 c2195
1346 3906 2615 5429 4027 446 414 1095 1081 1480 1521 2385 2725 3402 5493
2924 7960 -188 972 -614 1857 -1261 2625 -133 157 -479 502 -643 640 -1213
1022 -2779 1507 -4310 1334 -1247 -140 -2289 -598 -3053 -1344 -334 -325 -600
-673 -812 -1062 -44 -81 -82 -147 -85 -147 -3 0 -40 64 -83 143 -312 571 -764
1086 -1293 1472 -381 277 -869 522 -1349 677 -706 228 -1489 330 -2190 286z
m716 -159 c1894 -147 3297 -1011 4056 -2500 46 -91 93 -171 103 -179 13 -9 32
-11 55 -7 33 7 38 13 104 144 249 490 523 867 885 1219 757 737 1760 1170
3026 1308 206 23 646 31 865 16 1221 -82 2333 -535 3284 -1338 159 -134 473
-450 611 -613 752 -893 1183 -1925 1305 -3130 22 -212 31 -748 16 -980 -69
-1108 -399 -2237 -985 -3376 -1000 -1941 -2688 -3865 -5035 -5738 -1128 -901
-2437 -1810 -3796 -2635 -234 -142 -241 -146 -295 -145 -30 0 -66 6 -80 14
-14 7 -153 92 -310 188 -3118 1917 -5551 3939 -7191 5977 -1569 1949 -2414
3858 -2530 5715 -15 232 -6 768 16 980 93 917 357 1712 818 2462 916 1491
2557 2485 4317 2617 167 12 604 13 761 1z"/>
</g>
</svg>
